<mxfile host="app.diagrams.net" modified="2024-01-16T03:23:07.929Z" agent="Mozilla/5.0 (Windows NT 10.0; Win64; x64) AppleWebKit/537.36 (KHTML, like Gecko) Chrome/119.0.0.0 Safari/537.36" version="22.1.17" etag="U1luXcVPueLDy3Y3iLz2" type="github">
  <diagram name="第 1 页" id="XMRFgrRb3AEoOU9a7_yg">
    <mxGraphModel>
      <root>
        <mxCell id="0" />
        <mxCell id="1" parent="0" />
      </root>
    </mxGraphModel>
  </diagram>
</mxfile>
